This Thai crime noir tells the story of Tul, a hitman who wakes up from a coma to realize that he’s now seeing everything upside down. Tul wants to quit but is instead recruited to join a secret organization that gets ride of crooked politicians untouched by the law...

Informações técnicas:
Format : AVI
Format/Info : Audio Video Interleave
File size : 1.39 GiB
Duration : 1h 41mn
Overall bit rate : 1 959 Kbps

Video
ID : 0
Format : MPEG-4 Visual
Format profile : Simple@L3
Format settings, BVOP : No
Format settings, QPel : No
Format settings, GMC : No warppoints
Format settings, Matrix : Default (H.263)
Codec ID : XVID
Codec ID/Hint : XviD
Duration : 1h 41mn
Source duration : 1h 41mn
Bit rate : 1 500 Kbps
Width : 720 pixels
Height : 368 pixels
Display aspect ratio : 1.957
Frame rate : 25.000 fps
Color space : YUV
Chroma subsampling : 4:2:0
Bit depth : 8 bits
Scan type : Progressive
Compression mode : Lossy
Bits/(Pixel*Frame) : 0.226
Stream size : 1.06 GiB (77%)
Writing library : XviD 1.1.2 (UTC 2006-11-01)

Audio
ID : 1
Format : AC-3
Format/Info : Audio Coding 3
Mode extension : CM (complete main)
Codec ID : 2000
Duration : 1h 41mn
Bit rate mode : Constant
Bit rate : 448 Kbps
Channel(s) : 6 channels
Channel positions : Front: L C R, Side: L R, LFE
Sampling rate : 48.0 KHz
Bit depth : 16 bits
Compression mode : Lossy
Stream size : 325 MiB (23%)
Alignment : Aligned on interleaves
Interleave, duration : 32 ms (0.80 video frame)

Subs: English and Portuguese

Thanks to konken @ KG